<svg width="32" height="32" viewBox="0 0 32 32" fill="none" xmlns="http://www.w3.org/2000/svg">
  <rect width="32" height="32" rx="12" fill="#6366F1"/>
  <path d="M10.6 20.9C9.6 19.4 9 17.6 9 15.8C9 11 12.9 7 17.7 7C20.9 7 23.6 8.6 25.1 11.1L21.6 13.1C20.7 11.6 19.3 10.7 17.7 10.7C14.9 10.7 12.6 13 12.6 15.8C12.6 17.2 13.1 18.5 14 19.4L10.6 20.9Z" fill="white"/>
  <path d="M11.2 22.5C12.9 24.6 15.5 26 18.4 26C22.6 26 26.1 23.4 27.4 19.6L23.4 18.3C22.8 20.3 20.8 21.7 18.4 21.7C16.6 21.7 15 20.8 14 19.4L11.2 22.5Z" fill="#A5B4FC"/>
</svg>
